<mxfile host="Electron" agent="Mozilla/5.0 (Windows NT 10.0; Win64; x64) AppleWebKit/537.36 (KHTML, like Gecko) draw.io/24.7.8 Chrome/128.0.6613.36 Electron/32.0.1 Safari/537.36" version="24.7.8">
  <diagram name="Page-1" id="FG50t9QehiwdZTp5XmA9">
    <mxGraphModel dx="1500" dy="887" grid="1" gridSize="10" guides="1" tooltips="1" connect="1" arrows="1" fold="1" page="1" pageScale="1" pageWidth="1920" pageHeight="1200" math="0" shadow="0">
      <root>
        <mxCell id="0" />
        <mxCell id="1" parent="0" />
        <mxCell id="it-dY1sX6KetH1n9kR19-27" value="" style="rounded=1;whiteSpace=wrap;html=1;dashed=1;fillColor=none;container=0;" parent="1" vertex="1">
          <mxGeometry x="290" y="340" width="520" height="430" as="geometry" />
        </mxCell>
        <mxCell id="it-dY1sX6KetH1n9kR19-32" value="" style="rounded=1;whiteSpace=wrap;html=1;dashed=1;fillColor=none;container=0;" parent="1" vertex="1">
          <mxGeometry x="895" y="340" width="520" height="430" as="geometry" />
        </mxCell>
        <mxCell id="it-dY1sX6KetH1n9kR19-1" value="&lt;h3&gt;&lt;font face=&quot;Lucida Console&quot; style=&quot;font-size: 19px;&quot;&gt;INTEGRATION MODEL&lt;/font&gt;&lt;/h3&gt;" style="rounded=1;whiteSpace=wrap;html=1;container=0;" parent="1" vertex="1">
          <mxGeometry x="740" y="220" width="260" height="60" as="geometry" />
        </mxCell>
        <mxCell id="it-dY1sX6KetH1n9kR19-17" value="Product Category" style="text;html=1;align=center;verticalAlign=middle;resizable=0;points=[];autosize=1;strokeColor=none;fillColor=none;container=0;" parent="1" vertex="1">
          <mxGeometry x="945" y="370" width="120" height="30" as="geometry" />
        </mxCell>
        <mxCell id="it-dY1sX6KetH1n9kR19-18" value="erp_px_cat_g1v2" style="swimlane;fontStyle=0;childLayout=stackLayout;horizontal=1;startSize=30;horizontalStack=0;resizeParent=1;resizeParentMax=0;resizeLast=0;collapsible=1;marginBottom=0;whiteSpace=wrap;html=1;fillColor=#647687;fontColor=#ffffff;strokeColor=#314354;fontSize=20;rounded=1;container=0;" parent="1" vertex="1">
          <mxGeometry x="920" y="410" width="180" height="70" as="geometry" />
        </mxCell>
        <mxCell id="it-dY1sX6KetH1n9kR19-2" value="crm_cust_info" style="swimlane;fontStyle=0;childLayout=stackLayout;horizontal=1;startSize=30;horizontalStack=0;resizeParent=1;resizeParentMax=0;resizeLast=0;collapsible=1;marginBottom=0;whiteSpace=wrap;html=1;fillColor=#d80073;fontColor=#ffffff;strokeColor=#A50040;fontSize=20;rounded=1;container=0;" parent="1" vertex="1">
          <mxGeometry x="330" y="610" width="180" height="110" as="geometry" />
        </mxCell>
        <mxCell id="it-dY1sX6KetH1n9kR19-6" value="Customer Information" style="text;html=1;align=center;verticalAlign=middle;resizable=0;points=[];autosize=1;strokeColor=none;fillColor=none;container=0;" parent="1" vertex="1">
          <mxGeometry x="350" y="580" width="140" height="30" as="geometry" />
        </mxCell>
        <mxCell id="it-dY1sX6KetH1n9kR19-7" value="Current &amp;amp; history product information" style="text;html=1;align=center;verticalAlign=middle;resizable=0;points=[];autosize=1;strokeColor=none;fillColor=none;container=0;" parent="1" vertex="1">
          <mxGeometry x="310" y="370" width="220" height="30" as="geometry" />
        </mxCell>
        <mxCell id="it-dY1sX6KetH1n9kR19-8" value="crm_prd_info" style="swimlane;fontStyle=0;childLayout=stackLayout;horizontal=1;startSize=30;horizontalStack=0;resizeParent=1;resizeParentMax=0;resizeLast=0;collapsible=1;marginBottom=0;whiteSpace=wrap;html=1;fillColor=#d80073;fontColor=#ffffff;strokeColor=#A50040;fontSize=20;rounded=1;container=0;" parent="1" vertex="1">
          <mxGeometry x="330" y="410" width="180" height="70" as="geometry" />
        </mxCell>
        <mxCell id="it-dY1sX6KetH1n9kR19-21" value="crm_sls_details" style="swimlane;fontStyle=0;childLayout=stackLayout;horizontal=1;startSize=30;horizontalStack=0;resizeParent=1;resizeParentMax=0;resizeLast=0;collapsible=1;marginBottom=0;whiteSpace=wrap;html=1;fillColor=#d80073;fontColor=#ffffff;strokeColor=#A50040;fontSize=20;rounded=1;container=0;" parent="1" vertex="1">
          <mxGeometry x="615" y="520" width="180" height="110" as="geometry" />
        </mxCell>
        <mxCell id="it-dY1sX6KetH1n9kR19-28" value="CRM" style="rounded=1;whiteSpace=wrap;html=1;container=0;" parent="1" vertex="1">
          <mxGeometry x="495" y="320" width="120" height="30" as="geometry" />
        </mxCell>
        <mxCell id="it-dY1sX6KetH1n9kR19-33" value="ERP" style="rounded=1;whiteSpace=wrap;html=1;container=0;" parent="1" vertex="1">
          <mxGeometry x="1095" y="320" width="120" height="30" as="geometry" />
        </mxCell>
        <mxCell id="it-dY1sX6KetH1n9kR19-39" style="edgeStyle=orthogonalEdgeStyle;rounded=0;orthogonalLoop=1;jettySize=auto;html=1;flowAnimation=1;" parent="1" source="it-dY1sX6KetH1n9kR19-22" target="it-dY1sX6KetH1n9kR19-36" edge="1">
          <mxGeometry relative="1" as="geometry" />
        </mxCell>
        <mxCell id="it-dY1sX6KetH1n9kR19-42" style="edgeStyle=orthogonalEdgeStyle;rounded=0;orthogonalLoop=1;jettySize=auto;html=1;entryX=1;entryY=0.5;entryDx=0;entryDy=0;flowAnimation=1;" parent="1" source="it-dY1sX6KetH1n9kR19-26" target="it-dY1sX6KetH1n9kR19-3" edge="1">
          <mxGeometry relative="1" as="geometry" />
        </mxCell>
        <mxCell id="it-dY1sX6KetH1n9kR19-20" value="Transactional records about&amp;nbsp;&lt;div&gt;sales &amp;amp; order&lt;/div&gt;" style="text;html=1;align=center;verticalAlign=middle;resizable=0;points=[];autosize=1;strokeColor=none;fillColor=none;container=0;" parent="1" vertex="1">
          <mxGeometry x="615" y="480" width="180" height="40" as="geometry" />
        </mxCell>
        <mxCell id="it-dY1sX6KetH1n9kR19-51" style="edgeStyle=orthogonalEdgeStyle;rounded=0;orthogonalLoop=1;jettySize=auto;html=1;entryX=1;entryY=0.5;entryDx=0;entryDy=0;flowAnimation=1;" parent="1" source="it-dY1sX6KetH1n9kR19-19" target="it-dY1sX6KetH1n9kR19-36" edge="1">
          <mxGeometry relative="1" as="geometry">
            <Array as="points">
              <mxPoint x="820" y="460" />
              <mxPoint x="820" y="460" />
            </Array>
          </mxGeometry>
        </mxCell>
        <mxCell id="it-dY1sX6KetH1n9kR19-52" style="edgeStyle=orthogonalEdgeStyle;rounded=0;orthogonalLoop=1;jettySize=auto;html=1;flowAnimation=1;" parent="1" source="it-dY1sX6KetH1n9kR19-15" target="it-dY1sX6KetH1n9kR19-43" edge="1">
          <mxGeometry relative="1" as="geometry">
            <Array as="points">
              <mxPoint x="1010" y="700" />
            </Array>
          </mxGeometry>
        </mxCell>
        <mxCell id="it-dY1sX6KetH1n9kR19-53" style="edgeStyle=orthogonalEdgeStyle;rounded=0;orthogonalLoop=1;jettySize=auto;html=1;flowAnimation=1;" parent="1" source="it-dY1sX6KetH1n9kR19-12" target="it-dY1sX6KetH1n9kR19-43" edge="1">
          <mxGeometry relative="1" as="geometry" />
        </mxCell>
        <mxCell id="it-dY1sX6KetH1n9kR19-19" value="id" style="text;strokeColor=none;fillColor=none;align=left;verticalAlign=middle;spacingLeft=4;spacingRight=4;overflow=hidden;points=[[0,0.5],[1,0.5]];portConstraint=eastwest;rotatable=0;whiteSpace=wrap;html=1;fontSize=20;container=0;" parent="1" vertex="1">
          <mxGeometry x="920" y="440" width="180" height="40" as="geometry" />
        </mxCell>
        <mxCell id="it-dY1sX6KetH1n9kR19-3" value="cst_id" style="text;strokeColor=none;fillColor=none;align=left;verticalAlign=middle;spacingLeft=4;spacingRight=4;overflow=hidden;points=[[0,0.5],[1,0.5]];portConstraint=eastwest;rotatable=0;whiteSpace=wrap;html=1;fontSize=20;container=0;" parent="1" vertex="1">
          <mxGeometry x="330" y="640" width="180" height="40" as="geometry" />
        </mxCell>
        <mxCell id="it-dY1sX6KetH1n9kR19-43" value="cst_key" style="text;strokeColor=none;fillColor=none;align=left;verticalAlign=middle;spacingLeft=4;spacingRight=4;overflow=hidden;points=[[0,0.5],[1,0.5]];portConstraint=eastwest;rotatable=0;whiteSpace=wrap;html=1;fontSize=20;container=0;" parent="1" vertex="1">
          <mxGeometry x="330" y="680" width="180" height="40" as="geometry" />
        </mxCell>
        <mxCell id="it-dY1sX6KetH1n9kR19-36" value="prd_key" style="text;strokeColor=none;fillColor=none;align=left;verticalAlign=middle;spacingLeft=4;spacingRight=4;overflow=hidden;points=[[0,0.5],[1,0.5]];portConstraint=eastwest;rotatable=0;whiteSpace=wrap;html=1;fontSize=20;container=0;" parent="1" vertex="1">
          <mxGeometry x="330" y="440" width="180" height="40" as="geometry" />
        </mxCell>
        <mxCell id="it-dY1sX6KetH1n9kR19-22" value="sls_prd_key" style="text;strokeColor=none;fillColor=none;align=left;verticalAlign=middle;spacingLeft=4;spacingRight=4;overflow=hidden;points=[[0,0.5],[1,0.5]];portConstraint=eastwest;rotatable=0;whiteSpace=wrap;html=1;fontSize=20;container=0;" parent="1" vertex="1">
          <mxGeometry x="615" y="550" width="180" height="40" as="geometry" />
        </mxCell>
        <mxCell id="it-dY1sX6KetH1n9kR19-26" value="sls_cust_id" style="text;strokeColor=none;fillColor=none;align=left;verticalAlign=middle;spacingLeft=4;spacingRight=4;overflow=hidden;points=[[0,0.5],[1,0.5]];portConstraint=eastwest;rotatable=0;whiteSpace=wrap;html=1;fontSize=20;container=0;" parent="1" vertex="1">
          <mxGeometry x="615" y="590" width="180" height="40" as="geometry" />
        </mxCell>
        <mxCell id="J_EJxvOv_3s9-h6URCn4-2" value="&lt;b style=&quot;&quot;&gt;PRODUCT&lt;/b&gt;" style="text;html=1;strokeColor=#314354;fillColor=#647687;align=center;verticalAlign=middle;whiteSpace=wrap;overflow=hidden;fontColor=#ffffff;rounded=0;sketch=1;curveFitting=1;jiggle=2;shadow=1;glass=0;" parent="1" vertex="1">
          <mxGeometry x="330" y="480" width="180" height="30" as="geometry" />
        </mxCell>
        <mxCell id="J_EJxvOv_3s9-h6URCn4-3" value="&lt;b style=&quot;&quot;&gt;PRODUCT&lt;/b&gt;" style="text;html=1;strokeColor=#314354;fillColor=#647687;align=center;verticalAlign=middle;whiteSpace=wrap;overflow=hidden;fontColor=#ffffff;rounded=0;sketch=1;curveFitting=1;jiggle=2;shadow=1;glass=0;" parent="1" vertex="1">
          <mxGeometry x="920" y="480" width="180" height="30" as="geometry" />
        </mxCell>
        <mxCell id="J_EJxvOv_3s9-h6URCn4-6" value="CUSTOMER" style="text;html=1;strokeColor=#B20000;fillColor=#e51400;align=center;verticalAlign=middle;whiteSpace=wrap;overflow=hidden;fontColor=#ffffff;rounded=0;sketch=1;curveFitting=1;jiggle=2;shadow=1;glass=0;" parent="1" vertex="1">
          <mxGeometry x="330" y="720" width="180" height="30" as="geometry" />
        </mxCell>
        <mxCell id="J_EJxvOv_3s9-h6URCn4-7" value="SALES" style="text;html=1;strokeColor=#3A5431;fillColor=#6d8764;align=center;verticalAlign=middle;whiteSpace=wrap;overflow=hidden;fontColor=#ffffff;rounded=1;sketch=1;curveFitting=1;jiggle=2;shadow=1;glass=0;" parent="1" vertex="1">
          <mxGeometry x="617" y="630" width="175" height="30" as="geometry" />
        </mxCell>
        <mxCell id="J_EJxvOv_3s9-h6URCn4-9" value="" style="group" parent="1" vertex="1" connectable="0">
          <mxGeometry x="920" y="580" width="180" height="135" as="geometry" />
        </mxCell>
        <mxCell id="it-dY1sX6KetH1n9kR19-14" value="erp_loc_a101" style="swimlane;fontStyle=0;childLayout=stackLayout;horizontal=1;startSize=30;horizontalStack=0;resizeParent=1;resizeParentMax=0;resizeLast=0;collapsible=1;marginBottom=0;whiteSpace=wrap;html=1;fillColor=#647687;fontColor=#ffffff;strokeColor=#314354;fontSize=20;rounded=1;container=0;" parent="J_EJxvOv_3s9-h6URCn4-9" vertex="1">
          <mxGeometry y="35" width="180" height="70" as="geometry" />
        </mxCell>
        <mxCell id="it-dY1sX6KetH1n9kR19-16" value="Customer Location" style="text;html=1;align=center;verticalAlign=middle;resizable=0;points=[];autosize=1;strokeColor=none;fillColor=none;container=0;" parent="J_EJxvOv_3s9-h6URCn4-9" vertex="1">
          <mxGeometry x="30" width="120" height="30" as="geometry" />
        </mxCell>
        <mxCell id="it-dY1sX6KetH1n9kR19-15" value="cid" style="text;strokeColor=none;fillColor=none;align=left;verticalAlign=middle;spacingLeft=4;spacingRight=4;overflow=hidden;points=[[0,0.5],[1,0.5]];portConstraint=eastwest;rotatable=0;whiteSpace=wrap;html=1;fontSize=20;container=0;" parent="J_EJxvOv_3s9-h6URCn4-9" vertex="1">
          <mxGeometry y="65" width="180" height="40" as="geometry" />
        </mxCell>
        <mxCell id="J_EJxvOv_3s9-h6URCn4-4" value="CUSTOMER" style="text;html=1;strokeColor=#B20000;fillColor=#e51400;align=center;verticalAlign=middle;whiteSpace=wrap;overflow=hidden;fontColor=#ffffff;rounded=0;sketch=1;curveFitting=1;jiggle=2;shadow=1;glass=0;" parent="J_EJxvOv_3s9-h6URCn4-9" vertex="1">
          <mxGeometry y="105" width="180" height="30" as="geometry" />
        </mxCell>
        <mxCell id="J_EJxvOv_3s9-h6URCn4-10" value="" style="group" parent="1" vertex="1" connectable="0">
          <mxGeometry x="1210" y="480" width="180" height="135" as="geometry" />
        </mxCell>
        <mxCell id="it-dY1sX6KetH1n9kR19-11" value="erp_cust_az12" style="swimlane;fontStyle=0;childLayout=stackLayout;horizontal=1;startSize=30;horizontalStack=0;resizeParent=1;resizeParentMax=0;resizeLast=0;collapsible=1;marginBottom=0;whiteSpace=wrap;html=1;fillColor=#647687;fontColor=#ffffff;strokeColor=#314354;fontSize=20;rounded=1;container=0;" parent="J_EJxvOv_3s9-h6URCn4-10" vertex="1">
          <mxGeometry y="35" width="180" height="70" as="geometry" />
        </mxCell>
        <mxCell id="it-dY1sX6KetH1n9kR19-13" value="Extra Costumer information" style="text;html=1;align=center;verticalAlign=middle;resizable=0;points=[];autosize=1;strokeColor=none;fillColor=none;container=0;" parent="J_EJxvOv_3s9-h6URCn4-10" vertex="1">
          <mxGeometry x="10" width="170" height="30" as="geometry" />
        </mxCell>
        <mxCell id="it-dY1sX6KetH1n9kR19-12" value="cid" style="text;strokeColor=none;fillColor=none;align=left;verticalAlign=middle;spacingLeft=4;spacingRight=4;overflow=hidden;points=[[0,0.5],[1,0.5]];portConstraint=eastwest;rotatable=0;whiteSpace=wrap;html=1;fontSize=20;container=0;" parent="J_EJxvOv_3s9-h6URCn4-10" vertex="1">
          <mxGeometry y="65" width="180" height="40" as="geometry" />
        </mxCell>
        <mxCell id="J_EJxvOv_3s9-h6URCn4-5" value="CUSTOMER" style="text;html=1;strokeColor=#B20000;fillColor=#e51400;align=center;verticalAlign=middle;whiteSpace=wrap;overflow=hidden;fontColor=#ffffff;rounded=0;sketch=1;curveFitting=1;jiggle=2;shadow=1;glass=0;" parent="J_EJxvOv_3s9-h6URCn4-10" vertex="1">
          <mxGeometry y="105" width="180" height="30" as="geometry" />
        </mxCell>
      </root>
    </mxGraphModel>
  </diagram>
</mxfile>
